<svg xmlns="http://www.w3.org/2000/svg" xmlns:xlink="http://www.w3.org/1999/xlink" width="1920" height="1649.92" viewBox="0 0 1920 1649.92"><defs><clipPath id="a"><rect width="1920" height="1649.92" fill="#fff"/></clipPath></defs><g clip-path="url(#a)"><g transform="matrix(0.883, 0.469, -0.469, 0.883, 823.253, -910.434)"><g transform="translate(0 0)"><g transform="translate(0 0)"><path d="M175.366,856.373C293.5,973.227,456.914,1043.852,554.7,1181.414c37.395,52.606,80.454,119.59,71.669,186.525-11.7,89.151-52.294,162.978-18.621,254.423,45.8,124.371,187.753,166.363,305.955,123.858,150.293-54.05,218.4-241.923,329.814-347.272,101.6-96.059,206.847-159.143,348.693-116.5,168.827,50.745,312.8,196.971,499.8,177.267,121.218-12.765,224.409-99.621,288.938-203.02,98.666-158.108,120.4-361.882,57.3-537.239-56.858-158-206.9-337.685-379.067-374.775-69.39-14.947-155.163-8.5-225.051-1.516-101.161,10.117-178.261,76.555-267.26,119.237-123.3,59.129-271.7,57.059-396.445,3.265-58.511-25.224-107.812-62.226-168.513-82.853-68.949-23.427-127.131-62.571-177.884-115.217-57.741-59.9-101.249-133.461-165.441-186.389C538.853-17.5,356.4-25.195,222.084,52.515S4.75,283.961.21,439.068,65.043,747.253,175.366,856.373Z" transform="translate(0 81.179)" fill="#209a3d" style="mix-blend-mode:multiply;isolation:isolate"/><path d="M1795.25,154.129a342.182,342.182,0,0,1,33.2,60.645c37.17,88.34,38.205,188.362,12.387,279.9-25.32,89.785-84.947,159.576-111.334,248.727-44.848,151.521-49.895,311.442-60.6,469.092s-28.313,318.422-95.489,461.463c-114.888,244.659-366.054,370.458-618.929,251.005-151.954-71.773-223.815-218.48-344.263-326.5-136.077-122.045-320.845-181.807-449.557-311.586C21.975,1147.039-33.688,930.38,20.426,741.014s215.857-343.9,407.492-389.337c144.629-34.29,295.934-9.692,444.495-14.538,82.155-2.68,166.748-16.736,241.61-51.989,75.745-35.67,115.835-108.927,179.192-161.67,82.7-68.845,173.753-143.739,285.175-118.459C1665.568,24.8,1744.6,80.2,1795.25,154.129Z" transform="translate(257.36)" fill="#a0d176" opacity="0.9"/></g></g></g></g></svg>