<svg width="1024" height="768" xmlns="http://www.w3.org/2000/svg">
 <defs>
  <clipPath id="a">
   <rect id="svg_1" fill="#fff" height="1649.92" width="1920"/>
  </clipPath>
 </defs>
 <g>
  <title>background</title>
  <rect fill="none" id="canvas_background" height="770" width="1026" y="-1" x="-1"/>
 </g>
 <g>
  <title>Layer 1</title>
  <path stroke="null" transform="rotate(-159.30026245117188 42.37123107910159,771.8846435546876) " id="svg_6" fill="#209a3d" d="m-169.32545,681.56646c8.51173,31.82267 30.44868,60.7753 32.93478,93.8767c0.95073,12.65853 1.32973,28.29551 -7.74719,38.44819c-12.08945,13.52247 -27.74097,21.45613 -31.8061,40.15103c-5.52836,25.42653 15.68905,47.37228 42.00656,52.82136c33.4631,6.92761 66.86958,-16.97941 98.96519,-22.65071c29.2673,-5.17004 55.51831,-4.49608 76.64351,17.54613c25.14453,26.23341 35.09226,65.64773 71.41936,82.13839c23.54727,10.69091 52.07735,7.21241 75.39884,-3.08847c35.65998,-15.75173 62.37894,-47.18936 70.44299,-82.88363c7.26518,-32.16161 -0.05423,-77.7559 -27.33296,-102.08161c-10.99458,-9.80393 -27.36779,-17.79674 -40.90198,-24.02274c-19.59125,-9.01068 -41.08,-6.15629 -62.08779,-8.4914c-29.10404,-3.23559 -55.95555,-19.25353 -72.71478,-41.33536c-7.8617,-10.35608 -12.72752,-21.68909 -21.50218,-31.51549c-9.96726,-11.16115 -16.21467,-23.78684 -19.59874,-37.86297c-3.8494,-16.01511 -3.57599,-32.7883 -9.38115,-48.33066c-10.82983,-28.98773 -43.26786,-49.5338 -76.45697,-50.85705s-65.50521,15.35761 -83.65236,40.55493s-22.5788,57.86607 -14.62901,87.58336z"/>
  <path transform="rotate(-8.61996841430664 1044.299072265625,80.02705383300734) " stroke="null" id="svg_7" opacity="0.9" fill="#a0d176" d="m1316.56323,2.48598a79.51365,68.70642 0 0 1 -0.90716,16.43037c-3.92205,22.49986 -17.90171,42.71579 -36.91509,57.78787c-18.64843,14.7839 -42.42631,21.15788 -61.23255,35.67778c-31.96323,24.67793 -55.87204,56.14171 -80.77275,86.42461s-51.84933,60.30826 -87.79537,80.42288c-61.48006,34.40564 -137.72899,27.48582 -179.50748,-28.89688c-25.10592,-33.87928 -20.94705,-72.54314 -33.57859,-109.66394c-14.26936,-41.93922 -48.70795,-77.61089 -60.16634,-120.15942c-12.34719,-45.84623 5.52075,-96.48043 45.01758,-127.57009s99.05159,-41.39621 150.04207,-25.96756c38.48281,11.64452 70.14481,35.96843 105.35524,54.02874c19.47157,9.98742 41.12699,18.00302 63.53479,20.51577c22.67226,2.54215 42.40305,-7.03081 64.62396,-9.50385c29.00492,-3.22797 60.81083,-6.60034 83.10815,12.75078c17.44577,15.14048 27.93439,36.38962 29.19354,57.72293z"/>
  <path transform="rotate(115.43768310546875 72.36920928955078,2.8340759277343746) " stroke="null" id="svg_8" opacity="0.9" fill="#a0d176" d="m344.63337,-74.707a79.51365,68.70642 0 0 1 -0.90716,16.43038c-3.92204,22.49985 -17.9017,42.71578 -36.91508,57.78787c-18.64844,14.7839 -42.42632,21.15788 -61.23256,35.67778c-31.96323,24.67793 -55.87204,56.14171 -80.77274,86.42461s-51.84933,60.30827 -87.79537,80.42289c-61.48006,34.40564 -137.72899,27.48582 -179.50748,-28.89689c-25.10592,-33.87928 -20.94705,-72.54313 -33.5786,-109.66393c-14.26935,-41.93922 -48.70795,-77.61089 -60.16634,-120.15943c-12.34719,-45.84623 5.52076,-96.48043 45.01759,-127.57008s99.05159,-41.39621 150.04207,-25.96757c38.48281,11.64452 70.1448,35.96843 105.35524,54.02875c19.47157,9.98742 41.12699,18.00301 63.53478,20.51576c22.67227,2.54216 42.40305,-7.0308 64.62396,-9.50385c29.00491,-3.22797 60.81083,-6.60034 83.10815,12.75078c17.44578,15.14048 27.93439,36.38962 29.19354,57.72293z"/>
  <path stroke="null" transform="rotate(14.75899887084961 1026.811645507812,726.4063720703125) " id="svg_9" fill="#209a3d" d="m875.74632,661.94219c6.07391,22.71328 21.72798,43.3781 23.50205,67.00408c0.67843,9.03497 0.94889,20.1958 -5.52835,27.44222c-8.62696,9.6516 -19.79578,15.31422 -22.69663,28.65762c-3.945,18.14807 11.19561,33.81175 29.97561,37.70101c23.87904,4.94456 47.71769,-12.11897 70.62091,-16.16684c20.88495,-3.6901 39.61751,-3.20906 54.69231,12.52348c17.94297,18.72397 25.04161,46.85577 50.96439,58.62591c16.80317,7.63058 37.16206,5.14782 53.80412,-2.20439c25.44673,-11.24273 44.51321,-33.68119 50.26766,-59.15782c5.18438,-22.95521 -0.0387,-55.49793 -19.50463,-72.8603c-7.84566,-6.99751 -19.52948,-12.70234 -29.18739,-17.14613c-13.98019,-6.43133 -29.31442,-4.39402 -44.30545,-6.0607c-20.76846,-2.30939 -39.92951,-13.74212 -51.8888,-29.50293c-5.61006,-7.39161 -9.08228,-15.48049 -15.34381,-22.49405c-7.11257,-7.96622 -11.57069,-16.97775 -13.98553,-27.02452c-2.74691,-11.43072 -2.5518,-23.4025 -6.69433,-34.4958c-7.7281,-20.68987 -30.87566,-35.35453 -54.5592,-36.29899s-46.7441,10.96142 -59.69378,28.9459s-16.11208,41.30165 -10.43917,62.51223z"/>
 </g>
</svg>